<svg xmlns="http://www.w3.org/2000/svg" viewBox="0 0 256 256"><defs><style>.cls-1{fill:#1d384d;}</style></defs><title>chargeback</title><g id="icons_without_caption" data-name="icons without caption"><g id="CHARGEBACK"><path class="cls-1" d="M128,166.37A38.35,38.35,0,1,1,166.35,128,38.39,38.39,0,0,1,128,166.37Zm0-72.7A34.35,34.35,0,1,0,162.35,128,34.39,34.39,0,0,0,128,93.68Z"/><path class="cls-1" d="M140,136c0,5.28-3.72,9-10,9.5v6.27h-3.46v-6.32A18,18,0,0,1,116,140.32l2.7-3.24a14.71,14.71,0,0,0,10,4.3c3.82,0,6.65-1.9,6.65-5.16,0-3.72-3-5-7.76-6.45-5.66-1.82-10.82-3.59-10.82-9.76,0-5,3.51-8.85,9.83-9.15v-6.55H130v6.78a21.18,21.18,0,0,1,8.82,3.77l-2.6,3.21a16.08,16.08,0,0,0-8.72-3.06c-3.61,0-6.14,1.69-6.14,4.73,0,3.24,3.13,4.42,7.46,5.84,6.37,2,11.2,3.72,11.2,10.36Z"/><path class="cls-1" d="M186.78,128A59.48,59.48,0,0,1,79.86,163.89L83,161.48a55.48,55.48,0,1,0-11-38.4l5.87-5.87L80.75,120,69.93,130.85l-11-11L61.74,117,68,123.28A59.47,59.47,0,0,1,186.78,128Z"/><path class="cls-1" d="M183.54,183.57A78.55,78.55,0,1,1,138.81,50.22l-.54,4A74.56,74.56,0,1,0,184,78.85V91.7h-4V72h20.1v4H186.84A78.64,78.64,0,0,1,183.54,183.57Z"/></g></g></svg>